# xmcd CD database file
#
# Track frame offsets:
#	150
#	12480
#	27165
#	45293
#	59761
#	74492
#
# Disc length: 1308 seconds
#
# Revision: 0
# Processed by: cddbd v1.5.1PL0 Copyright (c) Steve Scherf et al.
# Submitted via: CDex 1.51
#
DISCID=4e051a06
DTITLE=大江戸宅急便 - 春 NYA Season selection
DYEAR=1900
DGENRE=未分類 (日本)
TTITLE0=はじまりの季節
TTITLE1=Brilliant Green
TTITLE2=Spring Breeze
TTITLE3=桜の並木道を抜けて
TTITLE4=Spring Bayside
TTITLE5=優しい風と君の頬笑み
EXTD=
EXTT0=
EXTT1=
EXTT2=
EXTT3=
EXTT4=
EXTT5=
PLAYORDER=
